<?xml version="1.0" encoding="UTF-8"?>
<svg width="568" height="800" version="1.1" viewBox="0 0 150.28 211.67" xmlns="http://www.w3.org/2000/svg"><g transform="translate(270.35 -41.369)"><rect x="-270.35" y="41.369" width="150.28" height="211.67" opacity=".99"/><g fill="#fff"><path d="m-204.47 45.338v1.3229c2.3367 0 5.1614-0.47897 5.2917 7.3132v132.92h-58.171c-7.7922-0.13024-7.3132-2.9549-7.3132-5.2917h-1.3229v13.229h8.6687c-0.0107 2.1e-4 -0.0218 2.6e-4 -0.0326 5.3e-4h1.2857c-0.0203-5.3e-4 -0.0387-1.3e-4 -0.0589-5.3e-4h56.944v44.377c-2.7e-4 -0.0202-9e-5 -0.0386-5.3e-4 -0.0589v1.2857c2.1e-4 -0.0108 2.6e-4 -0.0218 5.3e-4 -0.0326v8.6687h13.229v-1.3229c-2.3367 0-5.1614 0.47897-5.2917-7.3132v-45.603h58.436c7.7922 0.13024 7.3132 2.9549 7.3132 5.2917h1.3229v-18.521h-1.3229c0 2.3367 0.47898 5.1614-7.3132 5.2917h-58.436v-131.69c2.6e-4 0.02021 9e-5 0.03861 5.3e-4 0.05891v-1.2857c-2.1e-4 0.01078-2.7e-4 0.02181-5.3e-4 0.03256v-8.6687h-7.9375zm13.23 8.6362c0.13025-7.7922 2.9549-7.3132 5.2917-7.3132v-1.3229h-5.2917zm-7.9385 186.46c-0.13024 7.7922-2.9549 7.3132-5.2917 7.3132v1.3229h5.2917zm-58.171-45.603h-8.6362v5.2917h1.3229c0-2.3367-0.47897-5.1614 7.3132-5.2917z"/><path d="m-165.78 166.52h12.719s-10.113-21.489-41.806-21.489c-31.694 0-46.734 26.585-46.734 43.474 0 0-3.204 46.393 45.796 46.393 42.548 0 48.374-36.996 48.374-44.83l-11.885 1.8766c0 22.241-10.484 38.533-35.759 37.845-11.748 0-34.821-10.882-34.821-39.304 0 0-3.8574-40.868 34.196-40.868 0 0 19.888-0.47513 29.921 16.902z"/></g></g></svg>
